<svg id="Layer_1" data-name="Layer 1" xmlns="http://www.w3.org/2000/svg" viewBox="0 0 500 500"><defs><style>.cls-1{fill:#333;}</style></defs><path class="cls-1" d="M575.8,575.8c-74.44,74.43-195.54,74.43-270,0s-74.43-195.54,0-270,195.54-74.43,270,0S650.23,501.36,575.8,575.8ZM340.87,340.87c-55.1,55.11-55.1,144.77,0,199.88s144.77,55.1,199.88,0,55.1-144.77,0-199.88S396,285.77,340.87,340.87Z" transform="translate(-250 -250)"/><path class="cls-1" d="M605.39,521.82h81.78a0,0,0,0,1,0,0v217a31.88,31.88,0,0,1-31.88,31.88h-18a31.88,31.88,0,0,1-31.88-31.88v-217a0,0,0,0,1,0,0Z" transform="translate(-517.7 396.28) rotate(-45)"/></svg>